<?xml version="1.0" encoding="UTF-8"?>
<svg version="1.1" xmlns="http://www.w3.org/2000/svg" width="350" height="350">
<path d="M0 0 C115.5 0 231 0 350 0 C350 115.5 350 231 350 350 C234.5 350 119 350 0 350 C0 234.5 0 119 0 0 Z " fill="#FEFEFE" transform="translate(0,0)"/>
<path d="M0 0 C60.72 0 121.44 0 184 0 C183.67 1.32 183.34 2.64 183 4 C182.37351562 4.04898438 181.74703125 4.09796875 181.1015625 4.1484375 C180.28429687 4.22320312 179.46703125 4.29796875 178.625 4.375 C177.81289063 4.44460937 177.00078125 4.51421875 176.1640625 4.5859375 C173.79665809 4.82892588 173.79665809 4.82892588 172 7 C171.66697064 9.99509062 171.66697064 9.99509062 171.68115234 13.56103516 C171.67110672 14.23432358 171.6610611 14.907612 171.65071106 15.6013031 C171.61977818 17.83054741 171.60281632 20.05967109 171.5859375 22.2890625 C171.56723393 23.83321172 171.54766113 25.37735065 171.5272522 26.92147827 C171.4758391 30.98862645 171.43626273 35.0558078 171.39910889 39.12310791 C171.35912657 43.2722602 171.30800798 47.42127342 171.2578125 51.5703125 C171.16094463 59.71344681 171.07657486 67.85664971 171 76 C171.95261719 75.95359375 172.90523437 75.9071875 173.88671875 75.859375 C175.14097656 75.82328125 176.39523437 75.7871875 177.6875 75.75 C178.92886719 75.70359375 180.17023438 75.6571875 181.44921875 75.609375 C185.58880641 76.06477518 187.20729658 76.9456475 190 80 C190 81.32 190 82.64 190 84 C125.32 84 60.64 84 -6 84 C-5.67 82.02 -5.34 80.04 -5 78 C-1.31912647 75.54608431 1.44355588 75.77197241 5.6875 75.875 C6.38939453 75.88402344 7.09128906 75.89304687 7.81445312 75.90234375 C9.54311525 75.92586296 11.27160145 75.96173287 13 76 C12.938825 67.18549608 12.86174554 58.37131736 12.76428509 49.5571394 C12.71953281 45.46446382 12.68028768 41.3718889 12.65356445 37.27905273 C12.62757951 33.33016285 12.587212 29.38165934 12.53681374 25.43300819 C12.52011229 23.92555861 12.50861844 22.41804214 12.50238609 20.91051292 C12.4927801 18.80084989 12.46476581 16.69218261 12.43237305 14.58276367 C12.42126999 13.38141281 12.41016693 12.18006195 12.39872742 10.94230652 C12.24309063 8.00993834 12.24309063 8.00993834 10.60066223 6.12055969 C8.62187957 4.73529299 7.20798508 4.50885124 4.8125 4.3125 C2.9253125 4.1578125 2.9253125 4.1578125 1 4 C0.67 2.68 0.34 1.36 0 0 Z " fill="#232122" transform="translate(83,155)"/>
<path d="M0 0 C2.094945 0.87304365 4.1347351 1.82204402 6.17776489 2.81051636 C7.33054176 3.3484935 7.33054176 3.3484935 8.50660706 3.89733887 C11.01894091 5.07340661 13.52196903 6.26801855 16.02542114 7.46286011 C17.78410585 8.29004901 19.54339118 9.11596206 21.30325317 9.94064331 C25.74170115 12.02378999 30.17317684 14.12131576 34.60287476 16.22299194 C40.23857075 18.89307854 45.88693153 21.53627781 51.53369141 24.18286133 C53.46271466 25.08776325 55.39075054 25.99474181 57.31863403 26.90206909 C68.53175627 32.17326917 79.80762593 37.30349986 91.10501099 42.3913269 C98.17570127 45.58127007 105.18873926 48.85005861 112.08792114 52.40036011 C112.08792114 52.73036011 112.08792114 53.06036011 112.08792114 53.40036011 C34.86792114 53.40036011 -42.35207886 53.40036011 -121.91207886 53.40036011 C-118.71989294 50.20817419 -115.73683681 48.8351158 -111.66207886 47.15036011 C-99.27199548 41.9536929 -87.18805829 36.06611761 -75.05758667 30.29660034 C-55.47657589 20.98455088 -35.82047197 11.84261333 -16.1144104 2.79837036 C-5.95540695 -1.86765288 -5.95540695 -1.86765288 0 0 Z " fill="#282627" transform="translate(179.91207885742188,86.59963989257813)"/>
<path d="M0 0 C1.7125296 -0.01925285 1.7125296 -0.01925285 3.45965576 -0.03889465 C5.31895721 -0.04997505 5.31895721 -0.04997505 7.21582031 -0.0612793 C8.48613098 -0.06935104 9.75644165 -0.07742279 11.06524658 -0.08573914 C13.75870419 -0.09959131 16.45203893 -0.11060399 19.14550781 -0.11816406 C22.58663115 -0.12920954 26.02710442 -0.16358628 29.4679985 -0.20333576 C32.75887443 -0.23585883 36.04980818 -0.24028631 39.34082031 -0.2487793 C40.57225769 -0.26628738 41.80369507 -0.28379547 43.07244873 -0.30183411 C53.71325023 -0.27486493 53.71325023 -0.27486493 58.54394531 4.17700195 C62.53576517 8.70825693 63.66979991 11.01166824 63.6574707 17.00366211 C63.65735741 18.83533432 63.65735741 18.83533432 63.65724182 20.70401001 C63.65213483 22.0413619 63.64691883 23.37871338 63.64160156 24.71606445 C63.63973671 26.08084054 63.63831313 27.44561729 63.63731384 28.81039429 C63.63349394 32.40415288 63.62366815 35.99787113 63.61260986 39.59161377 C63.60238442 43.25809178 63.59781379 46.9245763 63.59277344 50.59106445 C63.58204541 57.78639536 63.5649753 64.981693 63.54394531 72.17700195 C59.91909532 72.26381671 56.29451088 72.31732917 52.66894531 72.36450195 C51.63640625 72.38963867 50.60386719 72.41477539 49.54003906 72.44067383 C48.06083984 72.45517578 48.06083984 72.45517578 46.55175781 72.4699707 C45.64055176 72.48568115 44.7293457 72.5013916 43.79052734 72.51757812 C43.04915527 72.40518799 42.3077832 72.29279785 41.54394531 72.17700195 C39.05997088 68.4510403 39.30427871 66.50679842 39.30566406 62.05981445 C39.29024346 60.63402369 39.27393975 59.20824226 39.25683594 57.7824707 C39.24039337 55.54186382 39.2314455 53.30194147 39.23852539 51.0612793 C39.24115232 48.89334296 39.21298185 46.72747396 39.18066406 44.55981445 C39.17768311 43.26446777 39.17470215 41.96912109 39.17163086 40.63452148 C38.39426731 36.35252124 36.8342745 34.91740387 33.54394531 32.17700195 C33.21394531 31.84700195 32.88394531 31.51700195 32.54394531 31.17700195 C29.61264542 30.99602089 26.72744124 30.89877177 23.79394531 30.86450195 C22.57578125 30.82099609 22.57578125 30.82099609 21.33300781 30.77661133 C17.21357526 30.7330017 15.0967806 30.82968963 11.52832031 33.0715332 C8.10631817 36.70235831 8.38229911 39.75968891 8.33300781 44.52075195 C8.30494984 46.0090444 8.27628545 47.49732552 8.24707031 48.9855957 C8.20572259 51.33601695 8.16884227 53.68622418 8.14257812 56.03686523 C8.11505506 58.30277297 8.06919894 60.56771375 8.02050781 62.83325195 C8.01725494 63.53848999 8.01400208 64.24372803 8.01065063 64.97033691 C7.96044922 66.95239258 7.96044922 66.95239258 7.54394531 70.17700195 C4.29004543 72.34626854 3.40998574 72.41780244 -0.34277344 72.37231445 C-1.28056641 72.36586914 -2.21835938 72.35942383 -3.18457031 72.3527832 C-4.64926758 72.32764648 -4.64926758 72.32764648 -6.14355469 72.30200195 C-7.6256543 72.2884668 -7.6256543 72.2884668 -9.13769531 72.2746582 C-11.57739234 72.25108625 -14.01660165 72.21818218 -16.45605469 72.17700195 C-16.5489106 64.32730803 -16.61989825 56.4777438 -16.66330338 48.62763786 C-16.6841404 44.98211076 -16.71238552 41.33696059 -16.7578125 37.69165039 C-16.80141112 34.17085208 -16.825221 30.65041535 -16.83556366 27.12936783 C-16.84650474 25.13852248 -16.87770868 23.14782173 -16.90924072 21.15719604 C-16.91202351 9.91261281 -16.91202351 9.91261281 -12.45605469 5.17700195 C-8.09025834 1.33094326 -5.76885495 0.05634886 0 0 Z " fill="#FCFBFC" transform="translate(151.4560546875,158.822998046875)"/>
<path d="M0 0 C0.81067429 0.39059097 1.62134857 0.78118195 2.45658875 1.18360901 C3.30758652 1.58076614 4.15858429 1.97792328 5.03536987 2.38711548 C7.73782 3.65188976 10.4310935 4.93498266 13.1245575 6.21876526 C14.95406283 7.07870887 16.78413579 7.93744598 18.61479187 8.79493713 C30.40792647 14.32919975 30.40792647 14.32919975 34.3120575 16.28126526 C34.3120575 17.60126526 34.3120575 18.92126526 34.3120575 20.28126526 C33.6520575 20.28126526 32.9920575 20.28126526 32.3120575 20.28126526 C32.3120575 20.94126526 32.3120575 21.60126526 32.3120575 22.28126526 C34.2920575 22.77626526 34.2920575 22.77626526 36.3120575 23.28126526 C36.3120575 24.27126526 36.3120575 25.26126526 36.3120575 26.28126526 C33.68609689 28.12653487 31.36078203 29.26502375 28.3120575 30.28126526 C29.23940322 31.76681909 30.17930562 33.24454032 31.1245575 34.71876526 C31.64662781 35.5424762 32.16869812 36.36618713 32.70658875 37.21485901 C34.22166463 39.55954312 34.22166463 39.55954312 37.3120575 40.28126526 C37.3120575 41.27126526 37.3120575 42.26126526 37.3120575 43.28126526 C33.0220575 43.28126526 28.7320575 43.28126526 24.3120575 43.28126526 C24.3120575 42.29126526 24.3120575 41.30126526 24.3120575 40.28126526 C24.9720575 39.95126526 25.6320575 39.62126526 26.3120575 39.28126526 C25.6520575 38.29126526 24.9920575 37.30126526 24.3120575 36.28126526 C23.6520575 36.28126526 22.9920575 36.28126526 22.3120575 36.28126526 C21.9820575 37.60126526 21.6520575 38.92126526 21.3120575 40.28126526 C21.9720575 40.28126526 22.6320575 40.28126526 23.3120575 40.28126526 C23.3120575 41.27126526 23.3120575 42.26126526 23.3120575 43.28126526 C19.6820575 43.28126526 16.0520575 43.28126526 12.3120575 43.28126526 C12.3120575 42.62126526 12.3120575 41.96126526 12.3120575 41.28126526 C12.9720575 41.28126526 13.6320575 41.28126526 14.3120575 41.28126526 C14.3120575 37.65126526 14.3120575 34.02126526 14.3120575 30.28126526 C12.9920575 30.61126526 11.6720575 30.94126526 10.3120575 31.28126526 C9.9820575 35.24126526 9.6520575 39.20126526 9.3120575 43.28126526 C4.29133211 44.33826008 4.29133211 44.33826008 1.3120575 43.28126526 C-1.59596279 39.56334773 -3.66313498 35.53336105 -5.6879425 31.28126526 C-6.0179425 34.25126526 -6.3479425 37.22126526 -6.6879425 40.28126526 C-5.6979425 40.28126526 -4.7079425 40.28126526 -3.6879425 40.28126526 C-3.6879425 41.27126526 -3.6879425 42.26126526 -3.6879425 43.28126526 C-10.2879425 43.28126526 -16.8879425 43.28126526 -23.6879425 43.28126526 C-23.6879425 42.29126526 -23.6879425 41.30126526 -23.6879425 40.28126526 C-23.0279425 40.28126526 -22.3679425 40.28126526 -21.6879425 40.28126526 C-21.6879425 39.29126526 -21.6879425 38.30126526 -21.6879425 37.28126526 C-23.6679425 37.28126526 -25.6479425 37.28126526 -27.6879425 37.28126526 C-27.6879425 37.94126526 -27.6879425 38.60126526 -27.6879425 39.28126526 C-27.0279425 39.61126526 -26.3679425 39.94126526 -25.6879425 40.28126526 C-25.6879425 41.60126526 -25.6879425 42.92126526 -25.6879425 44.28126526 C-26.49618469 44.3418512 -27.30442688 44.40243713 -28.13716125 44.46485901 C-29.20579407 44.54864807 -30.27442688 44.63243713 -31.3754425 44.71876526 C-32.43118469 44.7999762 -33.48692688 44.88118713 -34.57466125 44.96485901 C-37.33880547 45.24578207 -39.97739991 45.68283378 -42.6879425 46.28126526 C-42.6879425 45.95126526 -42.6879425 45.62126526 -42.6879425 45.28126526 C-46.9779425 44.95126526 -51.2679425 44.62126526 -55.6879425 44.28126526 C-55.6879425 43.29126526 -55.6879425 42.30126526 -55.6879425 41.28126526 C-55.0279425 41.28126526 -54.3679425 41.28126526 -53.6879425 41.28126526 C-53.6879425 36.33126526 -53.6879425 31.38126526 -53.6879425 26.28126526 C-54.3479425 26.28126526 -55.0079425 26.28126526 -55.6879425 26.28126526 C-55.6879425 25.29126526 -55.6879425 24.30126526 -55.6879425 23.28126526 C-55.0279425 22.95126526 -54.3679425 22.62126526 -53.6879425 22.28126526 C-54.3273175 21.99251526 -54.9666925 21.70376526 -55.6254425 21.40626526 C-57.6879425 20.28126526 -57.6879425 20.28126526 -58.6879425 18.28126526 C-54.3689324 16.25437663 -50.04966506 14.22803745 -45.73017883 12.2021637 C-44.2668953 11.5157839 -42.80367697 10.82926509 -41.3405304 10.14259338 C-40.63597717 9.81194885 -39.93142395 9.48130432 -39.20552063 9.14064026 C-38.50313263 8.8109021 -37.80074463 8.48116394 -37.07707214 8.14143372 C-35.66316665 7.47905294 -34.24838861 6.81853155 -32.83274841 6.15986633 C-29.5316711 4.62326962 -26.24350498 3.07007037 -22.9823761 1.45021057 C-21.8578302 0.90203674 -20.7332843 0.35386292 -19.57466125 -0.21092224 C-18.60101624 -0.69673767 -17.62737122 -1.1825531 -16.6242218 -1.68309021 C-10.35274599 -3.89507993 -5.80101091 -2.67735771 0 0 Z " fill="#252122" transform="translate(184.6879425048828,88.71873474121094)"/>
<path d="M0 0 C72.6 0 145.2 0 220 0 C219.34 1.32 218.68 2.64 218 4 C217.34 4.144375 216.68 4.28875 216 4.4375 C215.34 4.623125 214.68 4.80875 214 5 C213.62875 6.11375 213.62875 6.11375 213.25 7.25 C211.36422507 11.39870485 207.89706236 12.87021011 204 15 C204.33 14.01 204.66 13.02 205 12 C204.00809505 11.99761165 203.01619009 11.99522329 201.99422741 11.99276257 C177.88381824 11.93402622 153.77350946 11.85817993 129.66321087 11.76428509 C118.00375457 11.71927676 106.34432917 11.67987378 94.68481445 11.65356445 C84.52502675 11.6306251 74.36533639 11.59727281 64.20562583 11.55129844 C58.82373683 11.52731128 53.44194457 11.50861857 48.06000328 11.50238609 C42.99815634 11.49636001 37.93655708 11.47645041 32.87480164 11.44572449 C31.01357553 11.43690437 29.15231711 11.43322984 27.29107094 11.43499184 C24.7563543 11.43663428 22.22240207 11.42003432 19.68778992 11.39872742 C18.57446817 11.40599878 18.57446817 11.40599878 17.43865508 11.41341704 C14.5135484 11.37263468 12.4826665 11.32594412 10.01951313 9.66257954 C9 8 9 8 9 5 C7.88625 4.9175 6.7725 4.835 5.625 4.75 C4.42875 4.5025 3.2325 4.255 2 4 C1.34 2.68 0.68 1.36 0 0 Z " fill="#DDDBDC" transform="translate(65,142)"/>
<path d="M0 0 C1.3237095 0.00464581 1.3237095 0.00464581 2.6741606 0.00938547 C3.60818068 0.00485435 4.54220075 0.00032324 5.50452447 -0.00434518 C8.65369942 -0.01706818 11.80270317 -0.01536374 14.95190108 -0.01371634 C17.20183724 -0.01969667 19.45177134 -0.02650106 21.70170271 -0.03407156 C27.82770145 -0.05178937 33.95364438 -0.05642938 40.07966626 -0.05770314 C45.18674518 -0.05959832 50.29381098 -0.06695148 55.40088487 -0.07404733 C66.75765504 -0.08941873 78.11439054 -0.09538327 89.47116761 -0.09403662 C90.1530079 -0.09395671 90.83484818 -0.0938768 91.5373503 -0.09379447 C92.5613561 -0.09367182 92.5613561 -0.09367182 93.6060489 -0.0935467 C104.67073801 -0.09273373 115.73529101 -0.11187231 126.79994075 -0.1400712 C138.1544021 -0.16878088 149.50877636 -0.18224604 160.86328244 -0.18088365 C167.24064567 -0.18037271 173.61785495 -0.18612849 179.99518645 -0.20723975 C185.99191081 -0.22654788 191.9883332 -0.22679751 197.98506796 -0.21220648 C200.18937235 -0.21010803 202.39369527 -0.21488049 204.59796774 -0.2269274 C207.60085696 -0.2422793 210.60269186 -0.23313827 213.60555708 -0.21766531 C214.48356864 -0.22795244 215.36158019 -0.23823957 216.26619816 -0.24883842 C220.09597733 -0.20504988 222.13084828 -0.16346489 225.33942282 2.05771577 C226.76684248 4.276811 226.76684248 4.276811 226.76684248 8.276811 C148.88684248 8.276811 71.00684248 8.276811 -9.23315752 8.276811 C-7.94491546 0.54735868 -7.40682293 0.05976606 0 0 Z " fill="#1E1E1E" transform="translate(66.23315751552582,255.723188996315)"/>
<path d="M0 0 C7.75374429 2.73352341 15.10221597 6.50970013 22.50390625 10.0625 C25.7188453 11.59758973 28.93543374 13.12920183 32.15234375 14.66015625 C32.94559555 15.03817886 33.73884735 15.41620148 34.55613708 15.80567932 C39.38582056 18.10230091 44.23183823 20.35681161 49.10546875 22.55859375 C50.22171631 23.06326172 51.33796387 23.56792969 52.48803711 24.08789062 C54.53858504 25.0098004 56.59139497 25.92669996 58.64672852 26.83789062 C59.54190186 27.24072266 60.4370752 27.64355469 61.359375 28.05859375 C62.13047607 28.40075928 62.90157715 28.7429248 63.69604492 29.09545898 C65.44140625 30.0625 65.44140625 30.0625 66.44140625 32.0625 C-5.16859375 32.0625 -76.77859375 32.0625 -150.55859375 32.0625 C-150.55859375 31.7325 -150.55859375 31.4025 -150.55859375 31.0625 C-110.95859375 30.7325 -71.35859375 30.4025 -30.55859375 30.0625 C-30.55859375 29.4025 -30.55859375 28.7425 -30.55859375 28.0625 C-32.53859375 27.4025 -34.51859375 26.7425 -36.55859375 26.0625 C-36.55859375 25.7325 -36.55859375 25.4025 -36.55859375 25.0625 C-33.91859375 25.0625 -31.27859375 25.0625 -28.55859375 25.0625 C-28.55859375 19.7825 -28.55859375 14.5025 -28.55859375 9.0625 C-28.06359375 11.0425 -28.06359375 11.0425 -27.55859375 13.0625 C-26.23859375 12.7325 -24.91859375 12.4025 -23.55859375 12.0625 C-23.55859375 15.6925 -23.55859375 19.3225 -23.55859375 23.0625 C-24.21859375 23.0625 -24.87859375 23.0625 -25.55859375 23.0625 C-25.55859375 23.7225 -25.55859375 24.3825 -25.55859375 25.0625 C-21.92859375 25.0625 -18.29859375 25.0625 -14.55859375 25.0625 C-14.55859375 24.0725 -14.55859375 23.0825 -14.55859375 22.0625 C-15.21859375 22.0625 -15.87859375 22.0625 -16.55859375 22.0625 C-16.22859375 20.4125 -15.89859375 18.7625 -15.55859375 17.0625 C-12.55859375 18.0625 -12.55859375 18.0625 -11.37109375 20.125 C-11.10296875 20.764375 -10.83484375 21.40375 -10.55859375 22.0625 C-11.54859375 22.0625 -12.53859375 22.0625 -13.55859375 22.0625 C-13.55859375 23.0525 -13.55859375 24.0425 -13.55859375 25.0625 C-9.26859375 25.0625 -4.97859375 25.0625 -0.55859375 25.0625 C-0.55859375 24.0725 -0.55859375 23.0825 -0.55859375 22.0625 C-1.161875 21.96839844 -1.76515625 21.87429687 -2.38671875 21.77734375 C-5.05682603 20.89851348 -5.75633871 19.929428 -7.30859375 17.625 C-7.7365625 17.00753906 -8.16453125 16.39007813 -8.60546875 15.75390625 C-9.55859375 14.0625 -9.55859375 14.0625 -9.55859375 12.0625 C-5.20565257 8.0625 -5.20565257 8.0625 -1.55859375 8.0625 C-1.55859375 7.0725 -1.55859375 6.0825 -1.55859375 5.0625 C-3.86859375 5.0625 -6.17859375 5.0625 -8.55859375 5.0625 C-7.56859375 4.7325 -6.57859375 4.4025 -5.55859375 4.0625 C-5.55859375 2.7425 -5.55859375 1.4225 -5.55859375 0.0625 C-3.55859375 -0.9375 -3.55859375 -0.9375 0 0 Z " fill="#232021" transform="translate(222.55859375,106.9375)"/>
<path d="M0 0 C1.20216781 0.00566899 1.20216781 0.00566899 2.42862183 0.0114525 C3.70207839 0.00571418 3.70207839 0.00571418 5.00126135 -0.00014007 C7.86257256 -0.01050679 10.72368446 -0.006471 13.58500916 -0.0025093 C15.62967354 -0.00685374 17.67433628 -0.01203599 19.71899658 -0.01799697 C25.28503601 -0.03142699 30.85100771 -0.0319612 36.4170602 -0.02943367 C41.05699122 -0.02836666 45.69690839 -0.03324037 50.33683646 -0.03803909 C61.2795972 -0.04914813 72.22232362 -0.04956384 83.16508728 -0.04352492 C94.46905878 -0.03748276 105.77290587 -0.04979914 117.07685614 -0.07109499 C126.76859096 -0.08868488 136.4602861 -0.09471648 146.15203631 -0.09145725 C151.94639331 -0.08964007 157.74066159 -0.09232372 163.5350042 -0.10617179 C168.98259512 -0.11870309 174.4299915 -0.11685073 179.87757927 -0.1037609 C181.88073023 -0.10138528 183.88389468 -0.10416478 185.88703018 -0.11238402 C188.61425791 -0.12277023 191.34082298 -0.11481671 194.06802613 -0.10207289 C194.86724061 -0.10944718 195.66645509 -0.11682146 196.48988819 -0.12441921 C201.76673776 -0.07227528 201.76673776 -0.07227528 204.32705265 1.54553777 C205.3118158 3.27214891 205.3118158 3.27214891 205.3118158 7.27214891 C134.6918158 7.27214891 64.0718158 7.27214891 -8.6881842 7.27214891 C-7.35189517 0.59070374 -6.50052506 0.05217208 0 0 Z " fill="#201C1D" transform="translate(76.68818420171738,243.7278510928154)"/>
<path d="M0 0 C38.61 0 77.22 0 117 0 C117 0.33 117 0.66 117 1 C99.18 1.33 81.36 1.66 63 2 C63 2.66 63 3.32 63 4 C62.0925 4.5775 61.185 5.155 60.25 5.75 C56.7790539 8.15296269 54.54756622 10.09081579 53 14 C52.39110995 18.34873029 52.39505713 22.66873454 52.390625 27.0546875 C52.37408875 28.31137238 52.35755249 29.56805725 52.34051514 30.86282349 C52.30025852 34.18709509 52.2768776 37.51060262 52.26177979 40.83502197 C52.24215295 44.23392193 52.20018953 47.63253999 52.16015625 51.03125 C52.08626604 57.68743102 52.03462889 64.34350517 52 71 C51.34 71 50.68 71 50 71 C50 70.34 50 69.68 50 69 C47.06556598 69.26656572 47.06556598 69.26656572 44 70 C41.7226499 72.81509993 41.7226499 72.81509993 42 76 C41.01 75.505 41.01 75.505 40 75 C39.99453156 73.75425201 39.99453156 73.75425201 39.98895264 72.4833374 C39.9510807 64.65535552 39.89423744 56.82779061 39.81609726 49.000103 C39.77659333 44.97580081 39.74441943 40.95171837 39.72900391 36.92724609 C39.7138561 33.04310759 39.67944514 29.15957312 39.63169098 25.27570343 C39.61685758 23.79420472 39.60895786 22.31261978 39.60811615 20.83104706 C39.6057504 18.75487429 39.57870794 16.68037623 39.54589844 14.60449219 C39.53701599 13.42312683 39.52813354 12.24176147 39.51898193 11.02459717 C38.89437508 7.38442397 37.94310116 6.17488194 35 4 C31.832168 3.66551741 31.832168 3.66551741 29 4 C29 3.34 29 2.68 29 2 C27.78884521 2.01571045 27.78884521 2.01571045 26.55322266 2.03173828 C22.91051318 2.07319831 19.26785325 2.09929438 15.625 2.125 C14.35398437 2.14175781 13.08296875 2.15851563 11.7734375 2.17578125 C10.56171875 2.18222656 9.35 2.18867188 8.1015625 2.1953125 C6.98088379 2.20578613 5.86020508 2.21625977 4.70556641 2.22705078 C2 2 2 2 0 0 Z " fill="#1F1D1E" transform="translate(83,156)"/>
<path d="M0 0 C21.45 0 42.9 0 65 0 C64.67 0.99 64.34 1.98 64 3 C63.07767578 3.03867188 63.07767578 3.03867188 62.13671875 3.078125 C61.32847656 3.13484375 60.52023437 3.1915625 59.6875 3.25 C58.88699219 3.29640625 58.08648437 3.3428125 57.26171875 3.390625 C54.21475411 4.21156884 53.59649909 5.30743619 52 8 C51.53637538 10.82795186 51.53637538 10.82795186 51.58349609 13.97436523 C51.56692963 15.17919052 51.55036316 16.38401581 51.53329468 17.62535095 C51.53004181 18.92332108 51.52678894 20.2212912 51.5234375 21.55859375 C51.50911865 22.90854952 51.49336004 24.25849071 51.47622681 25.6084137 C51.43440413 29.15907896 51.4093936 32.70965396 51.38873291 36.26049805 C51.35290621 41.93990519 51.29171324 47.61908871 51.23024368 53.29826546 C51.21123738 55.27736807 51.19996281 57.25654006 51.18881226 59.23570251 C51.17341904 61.04766869 51.17341904 61.04766869 51.15771484 62.89624023 C51.15121918 63.9567308 51.14472351 65.01722137 51.13803101 66.10984802 C51.00747145 68.84355958 50.61592752 71.33781329 50 74 C49.01 73.67 48.02 73.34 47 73 C47 72.34 47 71.68 47 71 C44.525 71.495 44.525 71.495 42 72 C42 72.99 42 73.98 42 75 C41.34 75 40.68 75 40 75 C38.60263473 72.20526947 38.84425522 69.87262415 38.81054688 66.74609375 C38.79382935 65.43133057 38.77711182 64.11656738 38.7598877 62.76196289 C38.75320572 62.05733917 38.74652374 61.35271545 38.73963928 60.6267395 C38.71862909 58.42482825 38.69160551 56.22306458 38.66296387 54.02124023 C38.59309177 48.55284948 38.53371612 43.08435341 38.47393799 37.61584473 C38.42303654 32.99579667 38.36821753 28.37582776 38.30812073 23.75588989 C38.28150477 21.58329609 38.26071571 19.41069507 38.2401123 17.23803711 C38.22339478 15.92327393 38.20667725 14.60851074 38.18945312 13.25390625 C38.17692505 12.09189697 38.16439697 10.9298877 38.15148926 9.73266602 C38.18336537 7.03588061 38.18336537 7.03588061 37 5 C34.65092125 4.31068656 34.65092125 4.31068656 31.9375 3.875 C31.01839844 3.70742187 30.09929687 3.53984375 29.15234375 3.3671875 C28.44207031 3.24601563 27.73179687 3.12484375 27 3 C27 2.67 27 2.34 27 2 C18.09 1.67 9.18 1.34 0 1 C0 0.67 0 0.34 0 0 Z " fill="#201E1F" transform="translate(202,156)"/>
<path d="M0 0 C3.375 0.9375 3.375 0.9375 5.375 3.9375 C5.61550903 6.87980652 5.61550903 6.87980652 5.60205078 10.52026367 C5.60234283 11.18394455 5.60263489 11.84762543 5.60293579 12.53141785 C5.60154357 14.72290161 5.58598779 16.91404445 5.5703125 19.10546875 C5.56658198 20.62575596 5.56373519 22.14604558 5.56173706 23.66633606 C5.55410366 27.66619514 5.53445774 31.66590879 5.5123291 35.66571045 C5.49186434 39.74782341 5.482734 43.82995989 5.47265625 47.91210938 C5.4512115 55.92064706 5.4160318 63.92903868 5.375 71.9375 C1.085 71.9375 -3.205 71.9375 -7.625 71.9375 C-7.71537537 63.14050079 -7.7887583 54.34380998 -7.83224869 45.54645157 C-7.85312211 41.4614563 -7.88143463 37.37679515 -7.92675781 33.29199219 C-7.9702253 29.34975655 -7.99413895 25.40784223 -8.00450897 21.46538544 C-8.01189882 19.96145316 -8.02632967 18.45753843 -8.04792023 16.95374298 C-8.07696812 14.84670541 -8.08095571 12.74099471 -8.07910156 10.63378906 C-8.08798401 9.43465881 -8.09686646 8.23552856 -8.10601807 7.00006104 C-7.625 3.9375 -7.625 3.9375 -5.82318115 1.51507568 C-3.625 -0.0625 -3.625 -0.0625 0 0 Z " fill="#F7F7F7" transform="translate(116.625,159.0625)"/>
<path d="M0 0 C3.375 0.9375 3.375 0.9375 5.375 3.9375 C5.61550903 6.87980652 5.61550903 6.87980652 5.60205078 10.52026367 C5.60234283 11.18394455 5.60263489 11.84762543 5.60293579 12.53141785 C5.60154357 14.72290161 5.58598779 16.91404445 5.5703125 19.10546875 C5.56658198 20.62575596 5.56373519 22.14604558 5.56173706 23.66633606 C5.55410366 27.66619514 5.53445774 31.66590879 5.5123291 35.66571045 C5.49186434 39.74782341 5.482734 43.82995989 5.47265625 47.91210938 C5.4512115 55.92064706 5.4160318 63.92903868 5.375 71.9375 C1.085 71.9375 -3.205 71.9375 -7.625 71.9375 C-7.71537537 63.14050079 -7.7887583 54.34380998 -7.83224869 45.54645157 C-7.85312211 41.4614563 -7.88143463 37.37679515 -7.92675781 33.29199219 C-7.9702253 29.34975655 -7.99413895 25.40784223 -8.00450897 21.46538544 C-8.01189882 19.96145316 -8.02632967 18.45753843 -8.04792023 16.95374298 C-8.07696812 14.84670541 -8.08095571 12.74099471 -8.07910156 10.63378906 C-8.08798401 9.43465881 -8.09686646 8.23552856 -8.10601807 7.00006104 C-7.625 3.9375 -7.625 3.9375 -5.82318115 1.51507568 C-3.625 -0.0625 -3.625 -0.0625 0 0 Z " fill="#F7F7F7" transform="translate(235.625,159.0625)"/>
<path d="M0 0 C72.6 0 145.2 0 220 0 C219.34 1.32 218.68 2.64 218 4 C146.72 4 75.44 4 2 4 C1.34 2.68 0.68 1.36 0 0 Z " fill="#373536" transform="translate(65,142)"/>
<path d="M0 0 C66 0 132 0 200 0 C199.67 0.99 199.34 1.98 199 3 C133.66 3 68.32 3 1 3 C0.67 2.01 0.34 1.02 0 0 Z " fill="#1A1819" transform="translate(75,149)"/>
<path d="M0 0 C2.31 0 4.62 0 7 0 C7.19335938 0.59167969 7.38671875 1.18335937 7.5859375 1.79296875 C8.70737587 5.19614558 9.81899438 8.56177587 11.1875 11.875 C12 14 12 14 12 17 C13.65 17 15.3 17 17 17 C17 12.38 17 7.76 17 3 C16.01 3 15.02 3 14 3 C14 2.01 14 1.02 14 0 C17.50761015 -0.62388323 20.52443466 -0.87923528 24 0 C26.70699778 3.01364987 28.37748923 6.30647954 30 10 C30.33 7.69 30.66 5.38 31 3 C30.34 3 29.68 3 29 3 C29 2.01 29 1.02 29 0 C31.64 0 34.28 0 37 0 C37 0.99 37 1.98 37 3 C36.34 3 35.68 3 35 3 C35 8.61 35 14.22 35 20 C32.69 20 30.38 20 28 20 C25.78515625 17.375 25.78515625 17.375 24.0625 14 C23.47597656 12.88625 22.88945312 11.7725 22.28515625 10.625 C21.86105469 9.75875 21.43695313 8.8925 21 8 C20.67 10.97 20.34 13.94 20 17 C20.99 17 21.98 17 23 17 C23 17.99 23 18.98 23 20 C16.4 20 9.8 20 3 20 C3 19.01 3 18.02 3 17 C3.66 17 4.32 17 5 17 C5 16.01 5 15.02 5 14 C3.02 14 1.04 14 -1 14 C-1.33 15.32 -1.66 16.64 -2 18 C-1.34 18 -0.68 18 0 18 C0 18.66 0 19.32 0 20 C-2.64 20 -5.28 20 -8 20 C-8 19.01 -8 18.02 -8 17 C-7.34 17 -6.68 17 -6 17 C-5.81824219 16.35933594 -5.63648438 15.71867187 -5.44921875 15.05859375 C-3.93729955 9.85604103 -2.24999329 4.92855673 0 0 Z " fill="#EDEDED" transform="translate(158,112)"/>
<path d="M0 0 C8.08888889 -0.62222222 8.08888889 -0.62222222 11.5625 1.75 C13 4 13 4 13 8 C-64.88 8 -142.76 8 -223 8 C-223 7.67 -223 7.34 -223 7 C-146.11 7 -69.22 7 10 7 C8.13548235 5.13548235 5.46299928 5.87720545 2.98196787 5.87091869 C2.10941734 5.87383153 1.23686682 5.87674437 0.33787537 5.87974548 C-0.58177834 5.87889106 -1.50143205 5.87803663 -2.44895405 5.87715632 C-5.55526277 5.8754987 -8.66151845 5.88102748 -11.76782227 5.88647461 C-13.98469034 5.88675645 -16.2015585 5.88659882 -18.41842651 5.8860321 C-24.45743901 5.88574399 -30.49643183 5.8916429 -36.53543973 5.89860606 C-42.83888733 5.90483736 -49.14233532 5.90544322 -55.44578552 5.90663147 C-66.03246395 5.90939117 -76.61913589 5.91564668 -87.20581055 5.92456055 C-98.11206018 5.93373397 -109.01830784 5.94081514 -119.92456055 5.94506836 C-120.93227747 5.94546244 -120.93227747 5.94546244 -121.96035231 5.94586449 C-125.33049769 5.94716949 -128.70064309 5.94843321 -132.0707885 5.94967639 C-160.04719739 5.96014229 -188.02359819 5.97774302 -216 6 C-216 5.67 -216 5.34 -216 5 C-142.74 4.67 -69.48 4.34 6 4 C6.33 3.01 6.66 2.02 7 1 C4.69 1 2.38 1 0 1 C0 0.67 0 0.34 0 0 Z " fill="#3B3B3B" transform="translate(280,256)"/>
<path d="M0 0 C60.72 0 121.44 0 184 0 C184 0.33 184 0.66 184 1 C171.79 1.33 159.58 1.66 147 2 C147.99 3.485 147.99 3.485 149 5 C148.51391769 5.36869705 148.02783539 5.7373941 147.52702332 6.11726379 C145.36051438 8.78845078 145.60169788 10.70987206 145.56762695 14.1237793 C145.53793571 16.01540047 145.53793571 16.01540047 145.50764465 17.94523621 C145.50087488 19.32156221 145.49442802 20.69788983 145.48828125 22.07421875 C145.47143621 23.48242261 145.4532862 24.89061141 145.43388367 26.29878235 C145.38635785 30.00260718 145.35656556 33.706371 145.33044434 37.41040039 C145.30065158 41.19104058 145.25411693 44.97147045 145.20898438 48.75195312 C145.12292206 56.16786445 145.05559019 63.58379102 145 71 C144.67 71 144.34 71 144 71 C143.9845388 69.8670047 143.9845388 69.8670047 143.96876526 68.71112061 C143.87075053 61.58967618 143.76823047 54.46831756 143.66066074 47.34701157 C143.60551798 43.68596092 143.55211201 40.02490217 143.50268555 36.36376953 C143.45491418 32.82998084 143.40256713 29.29628673 143.34705925 25.76261139 C143.31678829 23.75965338 143.29124507 21.75662573 143.26576233 19.75360107 C143.24581711 18.53263733 143.22587189 17.31167358 143.20532227 16.05371094 C143.18977798 14.97893494 143.1742337 13.90415894 143.15821838 12.79681396 C143.1090268 10.06857425 143.1090268 10.06857425 142.36216736 7.80914307 C142.24265213 7.21212585 142.1231369 6.61510864 142 6 C142.66 5.01 143.32 4.02 144 3 C137.73 3 131.46 3 125 3 C124.67 3.99 124.34 4.98 124 6 C123.01 5.67 122.02 5.34 121 5 C119.11408604 4.88356421 117.22449218 4.82336539 115.33520508 4.79467773 C114.17422806 4.77473251 113.01325104 4.75478729 111.8170929 4.73423767 C110.56389755 4.71752518 109.31070221 4.70081268 108.01953125 4.68359375 C106.73640549 4.66281265 105.45327972 4.64203156 104.13127136 4.62062073 C100.72337185 4.56548094 97.31541259 4.51603611 93.90740967 4.46777344 C90.42845352 4.41749921 86.94958393 4.36184409 83.47070312 4.30664062 C76.64721049 4.19915811 69.82363964 4.09769123 63 4 C63.66 3.34 64.32 2.68 65 2 C43.55 1.67 22.1 1.34 0 1 C0 0.67 0 0.34 0 0 Z " fill="#4B4A4B" transform="translate(83,155)"/>
<path d="M0 0 C2.60444348 -0.05394705 5.20776998 -0.09364469 7.8125 -0.125 C8.55048828 -0.14175781 9.28847656 -0.15851563 10.04882812 -0.17578125 C13.91246426 -0.21074628 15.70903668 -0.19397555 19 2 C19.47730962 5.72301503 19.1387261 6.79191085 17 10 C17.99 10.66 18.98 11.32 20 12 C19.74438677 14.3431213 19.40729228 16.67843403 19 19 C15.69005287 20.65497356 12.00877 20.10084335 8.375 20.0625 C7.57320312 20.05798828 6.77140625 20.05347656 5.9453125 20.04882812 C3.96350994 20.03703168 1.98174567 20.01909605 0 20 C0 19.34 0 18.68 0 18 C0.66 18 1.32 18 2 18 C2 13.05 2 8.1 2 3 C1.34 3 0.68 3 0 3 C0 2.01 0 1.02 0 0 Z " fill="#EDEDED" transform="translate(129,112)"/>
<path d="M0 0 C3.3 0 6.6 0 10 0 C10 2.64 10 5.28 10 8 C11.65 6.68 13.3 5.36 15 4 C14.34 3.67 13.68 3.34 13 3 C13 2.01 13 1.02 13 0 C16.63 0 20.26 0 24 0 C24 0.99 24 1.98 24 3 C21.37403939 4.84526962 19.04872454 5.98375849 16 7 C16.92734572 8.48555383 17.86724813 9.96327506 18.8125 11.4375 C19.33457031 12.26121094 19.85664063 13.08492187 20.39453125 13.93359375 C21.90960713 16.27827786 21.90960713 16.27827786 25 17 C25 17.99 25 18.98 25 20 C20.71 20 16.42 20 12 20 C12 19.01 12 18.02 12 17 C12.66 16.67 13.32 16.34 14 16 C13.34 15.01 12.68 14.02 12 13 C11.34 13 10.68 13 10 13 C9.67 14.32 9.34 15.64 9 17 C9.66 17 10.32 17 11 17 C11 17.99 11 18.98 11 20 C7.37 20 3.74 20 0 20 C0 19.34 0 18.68 0 18 C0.66 18 1.32 18 2 18 C2 13.05 2 8.1 2 3 C1.34 3 0.68 3 0 3 C0 2.01 0 1.02 0 0 Z " fill="#EDECED" transform="translate(197,112)"/>
<path d="M0 0 C1.65 0.66 3.3 1.32 5 2 C5 2.33 5 2.66 5 3 C-66.61 3 -138.22 3 -212 3 C-212 2.67 -212 2.34 -212 2 C-142.04 2 -72.08 2 0 2 C0 1.34 0 0.68 0 0 Z " fill="#171516" transform="translate(284,136)"/>
<path d="M0 0 C-0.33 0.99 -0.66 1.98 -1 3 C-97.03 2.505 -97.03 2.505 -195 2 C-195 1.67 -195 1.34 -195 1 C-172.38059711 0.86895027 -149.76119066 0.73853159 -127.1417799 0.60884857 C-116.63740558 0.54860978 -106.13303248 0.4881704 -95.62866211 0.42724609 C-86.46493757 0.37409792 -77.30121089 0.32133905 -68.13748151 0.26903296 C-63.29277051 0.24136639 -58.44806074 0.21351488 -53.6033535 0.18519592 C-49.02747164 0.15845452 -44.45158704 0.13224032 -39.8757 0.10640144 C-38.21145775 0.09691623 -36.54721651 0.08725123 -34.88297653 0.07737541 C-23.2551957 0.00852277 -11.62797895 -0.01068384 0 0 Z " fill="#252324" transform="translate(275,149)"/>
<path d="M0 0 C2.31 0 4.62 0 7 0 C7.52992692 1.45505358 8.0486789 2.91418127 8.5625 4.375 C8.85253906 5.18710938 9.14257812 5.99921875 9.44140625 6.8359375 C10 9 10 9 9 11 C8.01 11.495 8.01 11.495 7 12 C7 11.34 7 10.68 7 10 C4.69 10.33 2.38 10.66 0 11 C-0.33 10.34 -0.66 9.68 -1 9 C-1.66 9 -2.32 9 -3 9 C-2.01 6.03 -1.02 3.06 0 0 Z " fill="#EEEDEE" transform="translate(158,112)"/>
<path d="M0 0 C0.33 0 0.66 0 1 0 C1 22.11 1 44.22 1 67 C5.62 67 10.24 67 15 67 C15 67.33 15 67.66 15 68 C9.06 68.33 3.12 68.66 -3 69 C-2.34 66.36 -1.68 63.72 -1 61 C-0.68280598 57.73395873 -0.68280598 57.73395873 -0.68115234 54.4921875 C-0.66128265 53.27152588 -0.64141296 52.05086426 -0.62094116 50.79321289 C-0.60938995 49.50020264 -0.59783875 48.20719238 -0.5859375 46.875 C-0.56719639 45.51878724 -0.54762086 44.16258578 -0.5272522 42.80639648 C-0.47623522 39.26213283 -0.43644819 35.71783149 -0.39910889 32.17340088 C-0.35887673 28.54649774 -0.30787273 24.91974719 -0.2578125 21.29296875 C-0.16141446 14.19542462 -0.07689586 7.09778442 0 0 Z " fill="#333132" transform="translate(253,164)"/>
<path d="M0 0 C1 2 2 4 3 6 C3.99 6.66 4.98 7.32 6 8 C5.34 9.65 4.68 11.3 4 13 C3.34 13 2.68 13 2 13 C2 13.99 2 14.98 2 16 C4.64 16 7.28 16 10 16 C10 15.34 10 14.68 10 14 C9.34 13.67 8.68 13.34 8 13 C8.99 13 9.98 13 11 13 C11 14.32 11 15.64 11 17 C10.19175781 17.06058594 9.38351563 17.12117188 8.55078125 17.18359375 C6.94783203 17.30927734 6.94783203 17.30927734 5.3125 17.4375 C4.25675781 17.51871094 3.20101562 17.59992188 2.11328125 17.68359375 C-0.65086297 17.96451681 -3.28945741 18.40156852 -6 19 C-6 18.67 -6 18.34 -6 18 C-10.29 17.67 -14.58 17.34 -19 17 C-19 16.67 -19 16.34 -19 16 C-12.73 15.67 -6.46 15.34 0 15 C0.71420206 8.51412983 0.71420206 8.51412983 -1.5 6.0625 C-1.995 5.711875 -2.49 5.36125 -3 5 C-2.01 3.35 -1.02 1.7 0 0 Z " fill="#353334" transform="translate(148,116)"/>
<path d="M0 0 C3.3 0 6.6 0 10 0 C10 2.64 10 5.28 10 8 C10.66 7.67 11.32 7.34 12 7 C11.67 8.32 11.34 9.64 11 11 C9.02 10.34 7.04 9.68 5 9 C5 8.34 5 7.68 5 7 C4.34 7 3.68 7 3 7 C3 10.3 3 13.6 3 17 C2.67 17 2.34 17 2 17 C2 12.38 2 7.76 2 3 C1.34 3 0.68 3 0 3 C0 2.01 0 1.02 0 0 Z " fill="#E6E5E5" transform="translate(197,112)"/>
<path d="M0 0 C0.66 0 1.32 0 2 0 C2 0.66 2 1.32 2 2 C3.98 2.66 5.96 3.32 8 4 C7.34 5.98 6.68 7.96 6 10 C6.66 10 7.32 10 8 10 C8 10.99 8 11.98 8 13 C4.37 13 0.74 13 -3 13 C-3 12.34 -3 11.68 -3 11 C-2.34 10.67 -1.68 10.34 -1 10 C-0.53248212 7.64400765 -0.53248212 7.64400765 -0.375 4.9375 C-0.30023438 4.01839844 -0.22546875 3.09929687 -0.1484375 2.15234375 C-0.09945312 1.44207031 -0.05046875 0.73179688 0 0 Z " fill="#F5F4F4" transform="translate(200,119)"/>
<path d="M0 0 C-0.50603992 2.16874252 -0.99983813 3.99967627 -2 6 C-1.01 6.66 -0.02 7.32 1 8 C0.67 10.31 0.34 12.62 0 15 C-1.98 15 -3.96 15 -6 15 C-5.67 14.34 -5.34 13.68 -5 13 C-5.34910615 11.52978062 -5.75240684 10.07210542 -6.1875 8.625 C-6.7734375 6.19921875 -6.7734375 6.19921875 -7 4 C-4.82348279 0.69491832 -3.98206475 0 0 0 Z " fill="#F4F2F3" transform="translate(148,116)"/>
<path d="M0 0 C2.60444348 -0.05394705 5.20776998 -0.09364469 7.8125 -0.125 C8.55048828 -0.14175781 9.28847656 -0.15851563 10.04882812 -0.17578125 C13.91246426 -0.21074628 15.70903668 -0.19397555 19 2 C19 2.66 19 3.32 19 4 C17.35 4.33 15.7 4.66 14 5 C13.67 5.99 13.34 6.98 13 8 C11.35 8 9.7 8 8 8 C8 6.35 8 4.7 8 3 C5.36 2.34 2.72 1.68 0 1 C0 0.67 0 0.34 0 0 Z " fill="#DEDDDE" transform="translate(129,112)"/>
<path d="M0 0 C2.79442919 2.79442919 4.01247132 4.7016295 5.6875 8.1875 C6.34298828 9.53908203 6.34298828 9.53908203 7.01171875 10.91796875 C7.50091797 11.94857422 7.50091797 11.94857422 8 13 C7.01 13.33 6.02 13.66 5 14 C4.34 14.66 3.68 15.32 3 16 C3 15.34 3 14.68 3 14 C-3.6 14 -10.2 14 -17 14 C-17 13.67 -17 13.34 -17 13 C-10.4 13 -3.8 13 3 13 C3 12.01 3 11.02 3 10 C2.01 10 1.02 10 0 10 C0 6.7 0 3.4 0 0 Z " fill="#3C3B3B" transform="translate(178,119)"/>
<path d="M0 0 C18.15 0 36.3 0 55 0 C55 0.33 55 0.66 55 1 C54.14450562 1.03758423 54.14450562 1.03758423 53.27172852 1.07592773 C50.70173843 1.19156549 48.13214473 1.31443624 45.5625 1.4375 C44.66466797 1.47681641 43.76683594 1.51613281 42.84179688 1.55664062 C41.98779297 1.59853516 41.13378906 1.64042969 40.25390625 1.68359375 C39.06776733 1.73858032 39.06776733 1.73858032 37.85766602 1.79467773 C35.98598559 1.80563257 35.98598559 1.80563257 35 3 C32.32941149 3.14115161 29.67567762 3.04247107 27 3 C27 2.67 27 2.34 27 2 C18.09 1.67 9.18 1.34 0 1 C0 0.67 0 0.34 0 0 Z " fill="#131112" transform="translate(202,156)"/>
<path d="M0 0 C0.99 0.33 1.98 0.66 3 1 C3 4.3 3 7.6 3 11 C3.99 11 4.98 11 6 11 C6 11.99 6 12.98 6 14 C3.36 14 0.72 14 -2 14 C-2 13.34 -2 12.68 -2 12 C-1.34 12 -0.68 12 0 12 C0 8.04 0 4.08 0 0 Z " fill="#F6F6F6" transform="translate(175,118)"/>
<path d="M0 0 C0.66 0 1.32 0 2 0 C3.47905238 2.95810476 3.12190903 5.9547155 3.09765625 9.1953125 C3.0962413 9.90275604 3.09482635 10.61019958 3.09336853 11.33908081 C3.087766 13.60109669 3.07521318 15.86301398 3.0625 18.125 C3.05748532 19.65755065 3.05292236 21.19010286 3.04882812 22.72265625 C3.03779577 26.48180888 3.02052952 30.24088772 3 34 C2.67 34 2.34 34 2 34 C1.67 24.76 1.34 15.52 1 6 C0.34 5.67 -0.32 5.34 -1 5 C-0.67 3.35 -0.34 1.7 0 0 Z " fill="#302D2E" transform="translate(188,194)"/>
<path d="M0 0 C0.99 0 1.98 0 3 0 C3 1.32 3 2.64 3 4 C2.19175781 4.06058594 1.38351563 4.12117187 0.55078125 4.18359375 C-1.05216797 4.30927734 -1.05216797 4.30927734 -2.6875 4.4375 C-3.74324219 4.51871094 -4.79898438 4.59992188 -5.88671875 4.68359375 C-8.65086297 4.96451681 -11.28945741 5.40156852 -14 6 C-14 5.67 -14 5.34 -14 5 C-18.29 4.67 -22.58 4.34 -27 4 C-27 3.67 -27 3.34 -27 3 C-25.80761719 2.93941406 -24.61523438 2.87882813 -23.38671875 2.81640625 C-21.82030075 2.73198851 -20.25389512 2.64734113 -18.6875 2.5625 C-17.90181641 2.52318359 -17.11613281 2.48386719 -16.30664062 2.44335938 C-15.54931641 2.40146484 -14.79199219 2.35957031 -14.01171875 2.31640625 C-13.31522217 2.27974854 -12.61872559 2.24309082 -11.90112305 2.20532227 C-9.7783428 2.04418847 -9.7783428 2.04418847 -7 1 C-7 1.66 -7 2.32 -7 3 C-4.03 3 -1.06 3 2 3 C2 2.34 2 1.68 2 1 C1.34 0.67 0.68 0.34 0 0 Z " fill="#494748" transform="translate(156,129)"/>
<path d="M0 0 C3 1 3 1 4.1875 3.0625 C4.455625 3.701875 4.72375 4.34125 5 5 C4.01 5 3.02 5 2 5 C2 6.32 2 7.64 2 9 C-2.29 9 -6.58 9 -11 9 C-11 7.68 -11 6.36 -11 5 C-10.01 5.33 -9.02 5.66 -8 6 C-8.66 6 -9.32 6 -10 6 C-10 6.66 -10 7.32 -10 8 C-6.37 8 -2.74 8 1 8 C1 7.01 1 6.02 1 5 C0.34 5 -0.32 5 -1 5 C-0.67 3.35 -0.34 1.7 0 0 Z " fill="#3F3E3F" transform="translate(207,124)"/>
<path d="M0 0 C0.66 0 1.32 0 2 0 C2 0.99 2 1.98 2 3 C2.66 3 3.32 3 4 3 C4 4.32 4 5.64 4 7 C2.68 7.33 1.36 7.66 0 8 C-0.33 11.96 -0.66 15.92 -1 20 C-1.33 20 -1.66 20 -2 20 C-2 14.39 -2 8.78 -2 3 C-1.34 3 -0.68 3 0 3 C0 2.01 0 1.02 0 0 Z " fill="#3A3A3A" transform="translate(195,112)"/>
<path d="M0 0 C0.33 0 0.66 0 1 0 C1 4.29 1 8.58 1 13 C-0.32 13 -1.64 13 -3 13 C-4.125 6.375 -4.125 6.375 -3 3 C-2.34 3 -1.68 3 -1 3 C-0.67 2.01 -0.34 1.02 0 0 Z " fill="#1C1B1C" transform="translate(173,116)"/>
<path d="M0 0 C4.23429756 1.31061591 8.07407404 2.94356259 12 5 C12 5.66 12 6.32 12 7 C9.69 7.33 7.38 7.66 5 8 C4.731875 7.195625 4.46375 6.39125 4.1875 5.5625 C3.795625 4.716875 3.40375 3.87125 3 3 C2.01 2.67 1.02 2.34 0 2 C0 1.34 0 0.68 0 0 Z " fill="#232122" transform="translate(265,127)"/>
<path d="M0 0 C2 1.625 2 1.625 4 4 C4.25 7.25 4.25 7.25 4 10 C3.01 10 2.02 10 1 10 C0.67 9.34 0.34 8.68 0 8 C-0.66 8 -1.32 8 -2 8 C-1.34 5.36 -0.68 2.72 0 0 Z " fill="#ADABAC" transform="translate(157,113)"/>
<path d="M0 0 C0.66 0.33 1.32 0.66 2 1 C1.9375 3.25 1.9375 3.25 1 6 C-1.2308475 7.67849824 -3.47405906 8.75999263 -6 10 C-5.58578031 5.16743695 -3.53586014 3.17320782 0 0 Z " fill="#EBEBEB" transform="translate(142,161)"/>
<path d="M0 0 C0.99 0 1.98 0 3 0 C3 0.99 3 1.98 3 3 C3.99 3.33 4.98 3.66 6 4 C0.125 9 0.125 9 -1 9 C-0.67 6.03 -0.34 3.06 0 0 Z " fill="#383737" transform="translate(207,112)"/>
<path d="M0 0 C-0.3125 1.9375 -0.3125 1.9375 -1 4 C-1.99 4.33 -2.98 4.66 -4 5 C-3.67 5.99 -3.34 6.98 -3 8 C-4.32 7.67 -5.64 7.34 -7 7 C-6.22006468 2.47637516 -4.81844319 0 0 0 Z " fill="#FAF9FA" transform="translate(148,116)"/>
<path d="M0 0 C0 2 0 2 -1.8125 4 C-4 6 -4 6 -7 8 C-7.99 6.68 -8.98 5.36 -10 4 C-8.71086513 3.32845067 -7.41859796 2.66291141 -6.125 2 C-5.40570313 1.62875 -4.68640625 1.2575 -3.9453125 0.875 C-2 0 -2 0 0 0 Z " fill="#2E2C2D" transform="translate(102,119)"/>
<path d="M0 0 C3.63 0 7.26 0 11 0 C11 0.99 11 1.98 11 3 C9.35 3.66 7.7 4.32 6 5 C5.67 4.01 5.34 3.02 5 2 C3.35 1.67 1.7 1.34 0 1 C0 0.67 0 0.34 0 0 Z " fill="#DCDADB" transform="translate(210,112)"/>
<path d="M0 0 C0.99 0.33 1.98 0.66 3 1 C2.67 2.65 2.34 4.3 2 6 C-0.31 6 -2.62 6 -5 6 C-4.01 5.67 -3.02 5.34 -2 5 C-2 3.68 -2 2.36 -2 1 C-1.34 0.67 -0.68 0.34 0 0 Z " fill="#1E1A1B" transform="translate(219,106)"/>
<path d="M0 0 C1.32 0 2.64 0 4 0 C4 1.98 4 3.96 4 6 C2.68 6 1.36 6 0 6 C0 4.02 0 2.04 0 0 Z " fill="#282727" transform="translate(138,123)"/>
<path d="M0 0 C1.98 0 3.96 0 6 0 C6 0.99 6 1.98 6 3 C5.34 3 4.68 3 4 3 C3.67 3.99 3.34 4.98 3 6 C2.67 5.34 2.34 4.68 2 4 C1.01 3.34 0.02 2.68 -1 2 C-0.67 1.34 -0.34 0.68 0 0 Z " fill="#262425" transform="translate(157,126)"/>
<path d="M0 0 C1.0625 1.875 1.0625 1.875 2 4 C1.67 4.66 1.34 5.32 1 6 C-1.64 5.34 -4.28 4.68 -7 4 C-4.61426621 2.10786631 -2.92824652 0.97608217 0 0 Z " fill="#312D2E" transform="translate(118,111)"/>
<path d="M0 0 C1.43655854 -0.08131463 2.8744483 -0.13933559 4.3125 -0.1875 C5.51326172 -0.23970703 5.51326172 -0.23970703 6.73828125 -0.29296875 C9.47851584 0.06198392 10.29171079 0.89366282 12 3 C10.35 3.66 8.7 4.32 7 5 C6.67 4.34 6.34 3.68 6 3 C6.33 2.34 6.66 1.68 7 1 C4.69 1 2.38 1 0 1 C0 0.67 0 0.34 0 0 Z " fill="#2D2D2D" transform="translate(280,256)"/>
<path d="M0 0 C0.66 1.32 1.32 2.64 2 4 C-0.48952921 6.66735273 -2.63408134 8.55746343 -6 10 C-4.63016497 6.83884224 -4.0109362 6.0072908 -1 4 C-0.27617533 1.94074861 -0.27617533 1.94074861 0 0 Z " fill="#F0F0F0" transform="translate(275,147)"/>
<path d="M0 0 C0.33 0 0.66 0 1 0 C1 1.65 1 3.3 1 5 C1.99 5.33 2.98 5.66 4 6 C2.35 6.33 0.7 6.66 -1 7 C-1.66 5.68 -2.32 4.36 -3 3 C-2.01 2.67 -1.02 2.34 0 2 C0 1.34 0 0.68 0 0 Z " fill="#F7F6F7" transform="translate(157,119)"/>
<path d="M0 0 C1.32 0.33 2.64 0.66 4 1 C4 2.32 4 3.64 4 5 C2.68 5 1.36 5 0 5 C0 3.35 0 1.7 0 0 Z " fill="#2B2B2B" transform="translate(138,115)"/>
<path d="M0 0 C0.66 0.33 1.32 0.66 2 1 C2.125 3.875 2.125 3.875 2 7 C1.34 7.66 0.68 8.32 0 9 C-0.66 8.67 -1.32 8.34 -2 8 C-1.67 7.236875 -1.34 6.47375 -1 5.6875 C0.17436686 3.00930865 0.17436686 3.00930865 0 0 Z " fill="#292526" transform="translate(165,190)"/>
<path d="M0 0 C0.8353125 0.556875 0.8353125 0.556875 1.6875 1.125 C-1.7477048 3.41513653 -3.297831 3.30342973 -7.3125 3.125 C-7.3125 2.465 -7.3125 1.805 -7.3125 1.125 C-2.88173077 -1.09038462 -2.88173077 -1.09038462 0 0 Z " fill="#2A2829" transform="translate(119.3125,156.875)"/>
<path d="M0 0 C5.75 1.75 5.75 1.75 8 4 C7.67 4.66 7.34 5.32 7 6 C4 5 4 5 2 3 C1.34 2.67 0.68 2.34 0 2 C0 1.34 0 0.68 0 0 Z " fill="#2D2B2C" transform="translate(265,127)"/>
<path d="M0 0 C1.32 0.66 2.64 1.32 4 2 C3.67 2.99 3.34 3.98 3 5 C1.68 5 0.36 5 -1 5 C-0.67 3.35 -0.34 1.7 0 0 Z " fill="#DFDEDF" transform="translate(153,124)"/>
</svg>
