<?xml version="1.0" encoding="UTF-8"?>
<svg version="1.1" xmlns="http://www.w3.org/2000/svg" width="1200" height="630">
<path d="M0 0 C396 0 792 0 1200 0 C1200 207.9 1200 415.8 1200 630 C804 630 408 630 0 630 C0 422.1 0 214.2 0 0 Z " fill="#FEFEFE" transform="translate(0,0)"/>
<path d="M0 0 C20.36772399 16.88949198 35.39339201 40.03821174 40.8125 66.125 C41.1425 70.415 41.4725 74.705 41.8125 79.125 C27.6225 79.125 13.4325 79.125 -1.1875 79.125 C-1.1875 86.385 -1.1875 93.645 -1.1875 101.125 C13.0025 101.125 27.1925 101.125 41.8125 101.125 C41.8125 107.18368572 41.27963321 111.38608127 39.75 117.0625 C39.52812012 117.89080322 39.30624023 118.71910645 39.07763672 119.57250977 C34.33570356 136.51608843 26.19611981 151.70775611 14.8125 165.125 C14.29816406 165.76179687 13.78382813 166.39859375 13.25390625 167.0546875 C-1.32846426 184.83806617 -23.13676298 196.59958747 -45.1875 202.125 C-45.90526611 202.31046387 -46.62303223 202.49592773 -47.36254883 202.68701172 C-54.90368884 204.43020544 -62.41478136 204.52411118 -70.125 204.5 C-70.80902893 204.49912384 -71.49305786 204.49824768 -72.19781494 204.49734497 C-104.48272058 204.36121912 -131.02004508 191.83345168 -153.93359375 169.44140625 C-176.40262404 145.8506771 -186.09395383 115.63827856 -185.4921875 83.484375 C-184.45830955 54.99719239 -172.04619624 29.18902988 -152.1875 9.125 C-151.44886719 8.32578125 -150.71023437 7.5265625 -149.94921875 6.703125 C-110.35852999 -35.27603311 -43.78055608 -33.66146529 0 0 Z " fill="#60BB47" transform="translate(342.1875,224.875)"/>
<path d="M0 0 C2.51104664 0.93375604 4.65373728 1.65119605 7.33203125 1.8671875 C9.28714275 0.66405798 9.28714275 0.66405798 10.89453125 -1.1328125 C12.5859375 -2.8828125 12.5859375 -2.8828125 14.33203125 -4.1328125 C16.44116211 -3.7109375 16.44116211 -3.7109375 18.33203125 -3.1328125 C18.38214355 -2.50004395 18.43225586 -1.86727539 18.48388672 -1.21533203 C18.72206013 1.77074689 18.96386008 4.75651131 19.20703125 7.7421875 C19.29581543 8.83321777 19.38459961 9.92424805 19.47607422 11.04833984 C20.0176203 17.54784463 20.66974372 24.0183773 21.45703125 30.4921875 C22.34510948 37.94315544 22.83099895 45.35946422 22.33203125 52.8671875 C21.33203125 53.8671875 21.33203125 53.8671875 18.76953125 53.9296875 C17.96515625 53.9090625 17.16078125 53.8884375 16.33203125 53.8671875 C15.83703125 52.1346875 15.83703125 52.1346875 15.33203125 50.3671875 C11.41097183 38.71446161 5.6001695 27.98380282 -2.66796875 18.8671875 C-3.43109375 17.9596875 -4.19421875 17.0521875 -4.98046875 16.1171875 C-15.83610715 7.02874605 -27.8348119 4.81096124 -41.66796875 5.8671875 C-50.65298435 7.27911852 -57.75029966 11.96923636 -63.48046875 18.9921875 C-70.3088753 29.5904435 -71.08336754 42.03723214 -68.54296875 54.0546875 C-65.33637897 65.42620495 -58.52185367 71.76364358 -48.62109375 77.69140625 C-38.31691367 83.38332254 -27.15771111 87.04898977 -16.02294922 90.74707031 C-2.80898735 95.19241815 8.42180681 100.83060318 18.33203125 110.8671875 C18.90566406 111.41890625 19.47929688 111.970625 20.0703125 112.5390625 C31.45465333 124.42349065 33.7801504 141.50142152 33.61547852 157.19921875 C33.15924799 176.26104648 27.13258113 194.54212995 13.8046875 208.58203125 C4.29451802 217.37105044 -8.61579711 223.56320679 -21.66796875 223.8671875 C-22.29300293 223.89683594 -22.91803711 223.92648437 -23.56201172 223.95703125 C-44.2104562 224.90225645 -60.39660049 218.93200549 -76.85546875 206.52734375 C-79.44743818 204.662024 -79.44743818 204.662024 -81.921875 204.92578125 C-84.01251502 205.87192424 -84.01251502 205.87192424 -85.60546875 208.8671875 C-87.66796875 211.8671875 -87.66796875 211.8671875 -90.35546875 212.8046875 C-91.50015625 212.835625 -91.50015625 212.835625 -92.66796875 212.8671875 C-93.66796875 211.8671875 -93.66796875 211.8671875 -93.81640625 207.9765625 C-93.73949669 200.51368311 -93.09600231 193.08188953 -92.49609375 185.64648438 C-92.29457295 183.13716291 -92.10195321 180.62726868 -91.91015625 178.1171875 C-91.16725619 168.63416288 -90.16639643 159.26554135 -88.66796875 149.8671875 C-86.335021 149.82477027 -84.00094308 149.82625813 -81.66796875 149.8671875 C-80.14977279 151.38538346 -80.38573705 152.87979956 -80.1953125 154.99609375 C-78.88443512 167.48325041 -76.21882872 177.15724961 -69.66796875 187.8671875 C-68.81332031 189.33285156 -68.81332031 189.33285156 -67.94140625 190.828125 C-61.55592595 200.90568395 -51.80292043 206.18596031 -40.66796875 209.8671875 C-28.25743324 212.39436529 -16.17319021 210.96662355 -5.16796875 204.4296875 C2.75287169 198.94986078 8.5366525 191.44927772 10.33203125 181.8671875 C11.32514967 170.8450028 11.86985937 158.75616628 6.33203125 148.8671875 C5.89632812 148.07441406 5.460625 147.28164063 5.01171875 146.46484375 C-4.69378835 130.52765859 -22.92805966 123.98319264 -39.50415039 117.53027344 C-57.62769972 110.42711151 -76.98513458 100.67574648 -85.54296875 82.1171875 C-86.27126045 80.37539896 -86.98061525 78.62553367 -87.66796875 76.8671875 C-88.00054687 76.14015625 -88.333125 75.413125 -88.67578125 74.6640625 C-93.62973004 60.69938795 -94.16574649 42.74945423 -88.34375 29.0390625 C-80.15411736 13.53793965 -69.38250489 1.73922879 -52.578125 -4.23046875 C-35.47935173 -8.86632783 -16.26346654 -6.60783365 0 0 Z " fill="#2A2B3F" transform="translate(506.66796875,206.1328125)"/>
<path d="M0 0 C18.48 0 36.96 0 56 0 C56 3.3 56 6.6 56 10 C55 11 55 11 51.4375 11.0625 C50.303125 11.041875 49.16875 11.02125 48 11 C47.57857723 18.14698608 49.12315886 24.21009338 51.0625 31.0625 C51.37687012 32.20138672 51.69124023 33.34027344 52.01513672 34.51367188 C54.37958276 43.00166833 56.90617983 51.43737667 59.50732422 59.85546875 C61.97412055 67.84292459 64.22985064 75.8774228 66.43261719 83.94091797 C67.91104239 89.30625281 69.46089712 94.65183244 71 100 C73.12305893 97.87694107 73.74356589 96.49346616 74.82836914 93.73168945 C75.17956314 92.84508133 75.53075714 91.95847321 75.89259338 91.04499817 C76.26963913 90.07753159 76.64668488 89.110065 77.03515625 88.11328125 C77.63148109 86.6012336 77.63148109 86.6012336 78.23985291 85.05863953 C79.51896834 81.8118295 80.79080634 78.56222314 82.0625 75.3125 C83.3057421 72.15209752 84.55039928 68.99225519 85.79525757 65.83248901 C86.62349679 63.72384156 87.44804936 61.61374243 88.26895142 59.50222778 C90.3373723 54.18558445 92.44960746 48.89606327 94.66357422 43.63818359 C95.08698593 42.61315231 95.51039764 41.58812103 95.94664001 40.5320282 C96.74460771 38.60376459 97.5590301 36.6821895 98.39332581 34.7693634 C100.85311498 28.75800994 101.94779806 23.36254317 100 17 C98.09577863 14.6005161 97.40955914 14.07326424 94.3359375 13.5234375 C92.87027344 13.44996094 92.87027344 13.44996094 91.375 13.375 C86.08333333 13.08333333 86.08333333 13.08333333 85 12 C84.92794489 10.31391034 84.91613932 8.62499341 84.9375 6.9375 C84.94652344 6.01839844 84.95554687 5.09929687 84.96484375 4.15234375 C84.97644531 3.44207031 84.98804688 2.73179687 85 2 C92.67211202 1.97473395 100.3442134 1.95716877 108.01635742 1.94506836 C110.62866619 1.94002623 113.24097211 1.93319275 115.85327148 1.92456055 C119.59880268 1.91248964 123.34429672 1.90677065 127.08984375 1.90234375 C128.26586655 1.89718246 129.44188934 1.89202118 130.65354919 1.88670349 C131.73459427 1.88662796 132.81563934 1.88655243 133.92944336 1.88647461 C134.88652695 1.884254 135.84361053 1.88203339 136.82969666 1.87974548 C139 2 139 2 140 3 C140.27314815 8.73611111 140.27314815 8.73611111 140 11 C137.60175053 13.39824947 136.72664782 13.31436204 133.4375 13.5625 C130.41952212 13.58449303 130.41952212 13.58449303 128 15 C127.34331281 22.3099653 129.40298561 28.25706334 131.75 35.125 C132.49372181 37.37058618 133.23592354 39.6166764 133.9765625 41.86328125 C134.33137695 42.93143066 134.68619141 43.99958008 135.05175781 45.10009766 C136.49862038 49.52487459 137.75655231 53.98772587 139.00390625 58.47265625 C140.30522243 63.08084647 141.68237273 67.66489177 143.0625 72.25 C143.43109131 73.47456909 143.43109131 73.47456909 143.80712891 74.72387695 C144.04737793 75.52140381 144.28762695 76.31893066 144.53515625 77.140625 C144.77250488 77.93275391 145.00985352 78.72488281 145.25439453 79.54101562 C145.77612893 81.26167994 146.30932024 82.97889296 146.85107422 84.69335938 C147.12580566 85.57314453 147.40053711 86.45292969 147.68359375 87.359375 C147.9355249 88.15311523 148.18745605 88.94685547 148.44702148 89.76464844 C149 92 149 92 149 96 C149.66 96 150.32 96 151 96 C151.24544556 95.14994385 151.24544556 95.14994385 151.49584961 94.28271484 C153.63948154 86.98781527 156.0711502 79.80758094 158.5625 72.625 C158.99870625 71.36320275 159.43490401 70.10140256 159.87109375 68.83959961 C163.43843165 58.53965939 167.0898551 48.27031381 170.77563477 38.01220703 C171.16936279 36.91634277 171.56309082 35.82047852 171.96875 34.69140625 C172.48598633 33.25583374 172.48598633 33.25583374 173.01367188 31.79125977 C175.14150819 25.76958832 176.41808824 21.37584564 176 15 C174.37921338 11.82990528 174.37921338 11.82990528 171.8359375 11.48828125 C171.02382813 11.43027344 170.21171875 11.37226563 169.375 11.3125 C167.93125 11.209375 166.4875 11.10625 165 11 C165 7.37 165 3.74 165 0 C180.84 0 196.68 0 213 0 C213 3.3 213 6.6 213 10 C210.76245356 12.23754644 205.32733819 11.25956248 202.296875 11.328125 C197.97345193 12.20920174 196.69074856 13.52237707 194 17 C192.46416681 19.85597163 191.25134577 22.7979917 190.0625 25.8125 C189.72041504 26.65127686 189.37833008 27.49005371 189.02587891 28.35424805 C186.62320555 34.29135378 184.35649732 40.27834546 182.14868164 46.2902832 C180.56216695 50.58868753 178.83250238 54.79853729 177 59 C174.59192941 64.52918025 172.41029564 70.10385812 170.3203125 75.7578125 C168.43380007 80.86019327 166.4823061 85.93410664 164.5 91 C162.27540992 96.69480449 160.08044588 102.39895266 157.9375 108.125 C157.57531372 109.08925903 157.57531372 109.08925903 157.20581055 110.07299805 C155.91308927 113.52357279 154.64401464 116.98133317 153.3984375 120.44921875 C153.13297119 121.17931152 152.86750488 121.9094043 152.59399414 122.66162109 C152.08621139 124.05917375 151.58501196 125.45914226 151.09155273 126.86181641 C148.85598261 132.98046612 148.85598261 132.98046612 146 135 C143.10317235 134.92757931 141.59795181 134.61411267 139.5546875 132.515625 C137.27692426 128.82999806 136.01017591 124.90369949 134.625 120.8125 C134.3146582 119.91104248 134.00431641 119.00958496 133.68457031 118.08081055 C131.68600068 112.20988282 129.88227343 106.31346443 128.19360352 100.34643555 C125.46718672 90.89478568 122.23676839 81.59762801 119.09887695 72.27661133 C116.18501737 63.61225272 113.33325245 54.93680351 110.75024414 46.16650391 C110.22212013 44.42658429 109.61948653 42.70952382 109 41 C108.34 40.67 107.68 40.34 107 40 C106.84289551 40.57395508 106.68579102 41.14791016 106.52392578 41.73925781 C104.46185156 48.96009508 101.75305903 55.82000902 98.875 62.75 C98.14204712 64.53216919 98.14204712 64.53216919 97.39428711 66.3503418 C95.93331871 69.90180543 94.46683012 73.45095431 93 77 C91.51742853 80.6027756 90.0392702 84.20734325 88.5625 87.8125 C88.21155273 88.66674561 87.86060547 89.52099121 87.49902344 90.40112305 C85.25715683 95.8735334 83.05703172 101.36137757 80.87890625 106.859375 C80.3345682 108.23071851 79.79021597 109.6020564 79.24584961 110.97338867 C78.18309048 113.65130622 77.12624068 116.33145866 76.07250977 119.01293945 C75.58709717 120.237146 75.10168457 121.46135254 74.6015625 122.72265625 C74.17182129 123.81328369 73.74208008 124.90391113 73.29931641 126.02758789 C72.04893006 128.88806398 70.81139576 131.45558469 69 134 C65.8125 134.8125 65.8125 134.8125 63 135 C60.56508314 132.0441483 59.23882545 129.35164279 58.01953125 125.73046875 C57.66487793 124.69019531 57.31022461 123.64992188 56.94482422 122.578125 C56.57115723 121.45921875 56.19749023 120.3403125 55.8125 119.1875 C54.99887038 116.79551425 54.18506549 114.4035881 53.37109375 112.01171875 C52.96745605 110.81724121 52.56381836 109.62276367 52.14794922 108.39208984 C50.57830005 103.75391341 48.9824869 99.12518019 47.375 94.5 C47.06731689 93.6133667 46.75963379 92.7267334 46.44262695 91.81323242 C44.14108518 85.20815699 41.79859021 78.61802289 39.4453125 72.03125 C39.12624939 71.13818649 38.80718628 70.24512299 38.47845459 69.32499695 C36.826385 64.70343619 35.17109314 60.08305435 33.51171875 55.46411133 C30.75480348 47.78134973 28.00558103 40.10111087 25.4296875 32.35546875 C25.07197266 31.28619141 24.71425781 30.21691406 24.34570312 29.11523438 C23.72459188 27.24190288 23.11534601 25.36456917 22.52148438 23.48242188 C20.89130879 18.57618258 19.34532236 15.12590854 15 12 C11.46932054 11.22374433 11.46932054 11.22374433 7.75 11.25 C1.05555556 11.05555556 1.05555556 11.05555556 0 10 C0 6.7 0 3.4 0 0 Z " fill="#2B2C3F" transform="translate(675,295)"/>
<path d="M0 0 C0.92039062 -0.01998047 1.84078125 -0.03996094 2.7890625 -0.06054688 C11.40223581 -0.05448126 19.75917204 2.19667204 26 8.4375 C31.72039558 15.46541457 32.30236208 23.56089518 32.25537109 32.31860352 C32.25899155 33.15562805 32.262612 33.99265259 32.26634216 34.8550415 C32.27318615 36.6555479 32.27575108 38.45607481 32.27439499 40.2565937 C32.27342201 43.11187172 32.28646118 45.96678124 32.30337524 48.82200623 C32.34942527 56.9339622 32.3742579 65.04587655 32.38085938 73.15795898 C32.38588439 78.13517835 32.41017626 83.11200725 32.44618607 88.08909416 C32.45595297 89.9776061 32.45833307 91.86617191 32.45301437 93.75470161 C32.44591308 96.39882113 32.46328574 99.04178099 32.48583984 101.68579102 C32.47766739 102.45640366 32.46949493 103.2270163 32.46107483 104.02098083 C32.54761408 109.75249642 34.16386828 113.46093176 37 118.4375 C44.49041262 118.88757156 44.49041262 118.88757156 51 115.4375 C51.33 114.7775 51.66 114.1175 52 113.4375 C54.46800047 114.58923355 56.04783565 115.48533565 58 117.4375 C57.64631167 123.80388994 53.56784823 128.0901833 49.0625 132.1875 C43.4561264 137.13626715 38.33718431 137.95656628 31.0078125 137.8125 C24.89000163 137.04975994 20.87876358 133.86888672 17.125 129.125 C14.70164389 125.42061052 13.83359177 121.75702097 13 117.4375 C12.37996094 117.994375 11.75992188 118.55125 11.12109375 119.125 C5.7837387 123.72429285 0.52744068 127.52081084 -5.6875 130.8125 C-6.59447632 131.29396484 -6.59447632 131.29396484 -7.51977539 131.78515625 C-15.09249144 135.67038683 -21.53841833 137.95463946 -30.125 137.875 C-30.89714844 137.89498047 -31.66929687 137.91496094 -32.46484375 137.93554688 C-38.58586311 137.93033306 -42.10610581 136.18388987 -46.609375 131.91015625 C-53.09954582 123.88634918 -54.06024944 114.50377631 -53 104.4375 C-49.49991425 91.72418404 -41.91724617 84.22811953 -31 77.4375 C-25.35798483 74.33426801 -19.54105269 71.56126825 -13.75 68.75 C-11.4520889 67.62884956 -9.15547216 66.50522214 -6.86114502 65.37675476 C-5.4453783 64.6809395 -4.02749558 63.98940612 -2.6071167 63.30305481 C3.49806759 60.34710231 3.49806759 60.34710231 9 56.4375 C9.87201083 53.30166307 9.87201083 53.30166307 9.69140625 49.765625 C9.68560547 48.46109375 9.67980469 47.1565625 9.67382812 45.8125 C9.65521729 45.13445312 9.63660645 44.45640625 9.61743164 43.7578125 C9.56302217 41.70717997 9.55590027 39.66065069 9.55664062 37.609375 C9.46383815 30.62512931 9.30146667 24.67109118 6 18.4375 C4.20885376 16.53912195 4.20885376 16.53912195 2.0625 15.5 C1.39347656 15.11972656 0.72445312 14.73945313 0.03515625 14.34765625 C-8.39583333 10.57717531 -17.21358919 12.06316197 -25.58984375 15.171875 C-28.4898997 16.69475689 -30.10526944 17.73136862 -32 20.4375 C-32.4084202 23.39350305 -32.23873602 26.27812965 -32.0625 29.25 C-31.71505859 35.54024529 -31.96139942 39.82393507 -35 45.4375 C-38.77589906 48.93711377 -41.32321084 50.58672583 -46.4375 50.6875 C-47.21996094 50.71328125 -48.00242187 50.7390625 -48.80859375 50.765625 C-51.53677498 50.35712728 -52.3441611 49.60477539 -54 47.4375 C-55.80916674 42.00999977 -55.99537166 36.90922829 -53.8359375 31.546875 C-47.69806042 20.02655187 -39.9372464 13.43243915 -28.625 7.25 C-28.02510254 6.91693848 -27.42520508 6.58387695 -26.80712891 6.24072266 C-18.11520674 1.62929743 -9.798123 -0.07547574 0 0 Z " fill="#2C2D40" transform="translate(949,291.5625)"/>
<path d="M0 0 C0.81726563 0.4021875 1.63453125 0.804375 2.4765625 1.21875 C12.02630311 6.41196242 17.56515101 13.57679426 22.5 23.0625 C22.85078613 23.7229834 23.20157227 24.3834668 23.56298828 25.06396484 C25.9512834 29.9260664 26.33730049 33.59716901 26 39 C16.44726459 42.55073373 7.07178514 43.9598302 -2.984375 45.21875 C-9.18163327 45.99899498 -15.33732716 46.98585906 -21.5 48 C-32.97397838 49.87483893 -44.47297927 51.48901019 -56 53 C-53.67960618 71.72598523 -49.6819446 91.93213654 -34.18359375 104.5 C-23.46170093 111.86530741 -12.75804408 113.29308267 0 112 C11.56997508 109.06320107 21.31491108 101.73843183 27.48046875 91.5546875 C28.69303985 89.38768368 29.86756346 87.20975449 31 85 C32.98 85.33 34.96 85.66 37 86 C38.90481806 90.94062184 36.468309 94.91172418 34.58203125 99.546875 C29.26945226 111.14272643 21.57081376 121.21459312 10 127 C8.66195312 127.69996094 8.66195312 127.69996094 7.296875 128.4140625 C-0.87913709 132.01875749 -8.39665458 132.46700694 -17.25 132.5 C-18.35069824 132.50620361 -19.45139648 132.51240723 -20.58544922 132.51879883 C-34.34298727 132.30645917 -46.21185405 127.89436659 -56.25 118.3125 C-71.85094409 101.77203789 -78.82144821 78.69894127 -78.23828125 56.265625 C-77.45851557 39.10309752 -70.42057465 23.81083735 -58 12 C-57.41476563 11.41863281 -56.82953125 10.83726562 -56.2265625 10.23828125 C-42.88862898 -2.19167088 -16.89245138 -8.54330874 0 0 Z " fill="#FCFDFB" transform="translate(286,249)"/>
<path d="M0 0 C1.051875 0.5775 2.10375 1.155 3.1875 1.75 C15.0831105 11.2664884 22.31886095 23.88237984 24.27734375 39.1640625 C24.375 41.0625 24.375 41.0625 24 44 C20.33955333 46.44029778 17.6361545 46.26882249 13.4074707 46.22705078 C12.25101547 46.22748886 12.25101547 46.22748886 11.07119751 46.22793579 C8.52261098 46.22654233 5.97431672 46.21098049 3.42578125 46.1953125 C1.65887105 46.19158242 -0.10804122 46.18873543 -1.87495422 46.18673706 C-6.52582508 46.17910017 -11.17657106 46.1594512 -15.82739258 46.1373291 C-20.57306224 46.11687188 -25.31875208 46.10773561 -30.06445312 46.09765625 C-39.37635696 46.07620537 -48.68816809 46.04206873 -58 46 C-58.04792668 49.30073008 -58.07631232 52.60136847 -58.1015625 55.90234375 C-58.11517822 56.82382202 -58.12879395 57.74530029 -58.14282227 58.69470215 C-58.24073149 75.83258137 -53.56727616 92.13876957 -41.578125 104.80078125 C-32.59011903 112.4678227 -22.53227038 114.88171055 -11.00439453 114.2265625 C-1.60281712 113.16387507 7.64744855 108.12179433 13.74609375 100.9453125 C15.96262324 98.04309403 17.97463443 95.03804835 20 92 C22.96175123 92.61277612 24.38058783 93.25372522 27 95 C23.60035579 107.96114355 14.22393507 119.29492829 3.1875 126.8125 C-10.84216726 134.71963145 -26.20774235 134.91722543 -41.50268555 130.84130859 C-47.30257569 129.11212147 -52.15361614 126.58524308 -57 123 C-57.94746094 122.32324219 -57.94746094 122.32324219 -58.9140625 121.6328125 C-71.47639764 111.83751153 -77.37165692 96.14606338 -80 81 C-80.17128418 80.2172168 -80.34256836 79.43443359 -80.51904297 78.62792969 C-83.08776598 64.59253146 -81.52124049 49.4224327 -77 36 C-76.71125 35.07316406 -76.4225 34.14632812 -76.125 33.19140625 C-71.63648021 20.34702595 -60.79943391 7.7121504 -49.0078125 0.95703125 C-34.91963814 -5.75814913 -13.94024607 -7.67646438 0 0 Z " fill="#2A2B3F" transform="translate(646,296)"/>
<path d="M0 0 C0.09913284 5.72911572 0.1715934 11.45772839 0.21972656 17.1875 C0.23979906 19.13517966 0.26706332 21.08279937 0.30175781 23.03027344 C0.35046852 25.83543721 0.37301241 28.63980187 0.390625 31.4453125 C0.41127014 32.31116974 0.43191528 33.17702698 0.45318604 34.06912231 C0.45554683 40.47970397 -1.22466161 43.96130834 -5.60546875 48.7578125 C-12.4985954 54.71483553 -19.2333596 57.81560355 -28.4765625 57.453125 C-32.63770571 56.70592281 -34.23790636 55.18703112 -37 52 C-40.42508928 45.22117747 -40.15955252 36.34979348 -38.23046875 29.11328125 C-32.86853503 17.04419369 -21.08696644 10.93023786 -10 5 C-8.22775374 4.0025062 -6.4566848 3.00291368 -4.6875 2 C-1.12828947 0 -1.12828947 0 0 0 Z " fill="#FCFCFD" transform="translate(959,357)"/>
<path d="M0 0 C4.69943535 4.24756657 8.25159614 11.17921345 9.25 17.3984375 C9.25 19.3125 9.25 19.3125 8.875 22.0625 C2.93256597 24.22156134 -2.82088102 25.7101214 -9.0703125 26.6328125 C-9.88442596 26.75937225 -10.69853943 26.88593201 -11.537323 27.0163269 C-14.10715232 27.41404409 -16.67847375 27.80092437 -19.25 28.1875 C-20.980578 28.45371783 -22.7110479 28.72063942 -24.44140625 28.98828125 C-31.33083481 30.04990433 -38.2229765 31.08593831 -45.125 32.0625 C-44.13809352 19.47944238 -40.76073952 9.55903879 -31.125 1.0625 C-20.93697014 -6.69042957 -10.76777193 -6.67601859 0 0 Z " fill="#62BB49" transform="translate(275.125,260.9375)"/>
<path d="M0 0 C6.99459342 3.792088 9.65153147 10.94287566 12.0390625 18.10546875 C12.10709217 19.83342227 12.12401895 21.5638224 12.1015625 23.29296875 C12.09253906 24.19402344 12.08351563 25.09507812 12.07421875 26.0234375 C12.06261719 26.71050781 12.05101562 27.39757812 12.0390625 28.10546875 C8.92279195 29.9227213 6.67779858 30.35102925 3.08691406 30.33251953 C2.10619934 30.33236847 1.12548462 30.33221741 0.11505127 30.33206177 C-1.4617038 30.31657791 -1.4617038 30.31657791 -3.0703125 30.30078125 C-4.15225891 30.29795135 -5.23420532 30.29512146 -6.34893799 30.29220581 C-9.80305054 30.28101484 -13.25690338 30.25591195 -16.7109375 30.23046875 C-19.05338167 30.22043756 -21.39582991 30.21131195 -23.73828125 30.203125 C-29.47925521 30.18107905 -35.2200778 30.14761209 -40.9609375 30.10546875 C-39.74636764 19.54960577 -35.88896128 11.43115807 -27.9609375 4.10546875 C-19.25442108 -2.34023954 -10.31931811 -3.8834183 0 0 Z " fill="#FCFCFC" transform="translate(630.9609375,302.89453125)"/>
<path d="M0 0 C2.475 0.495 2.475 0.495 5 1 C5.50757862 2.41396902 6.00574925 3.83131729 6.5 5.25 C6.7784375 6.03890625 7.056875 6.8278125 7.34375 7.640625 C8 10 8 10 8 14 C8.66 14 9.32 14 10 14 C10.103125 13.360625 10.20625 12.72125 10.3125 12.0625 C11.23903073 7.93522674 12.61660629 3.99357051 14 0 C15.32 0 16.64 0 18 0 C19.03026944 6.69675136 19.10152799 13.2314676 19 20 C18.01 20 17.02 20 16 20 C15.67 15.71 15.34 11.42 15 7 C13.35 11.29 11.7 15.58 10 20 C9.34 20 8.68 20 8 20 C6.68 16.37 5.36 12.74 4 9 C3.34 12.63 2.68 16.26 2 20 C1.34 20 0.68 20 0 20 C0 13.4 0 6.8 0 0 Z " fill="#363649" transform="translate(1024,294)"/>
<path d="M0 0 C4.62 0 9.24 0 14 0 C14 0.66 14 1.32 14 2 C12.02 2 10.04 2 8 2 C8 7.94 8 13.88 8 20 C7.01 20 6.02 20 5 20 C5 14.06 5 8.12 5 2 C3.35 2 1.7 2 0 2 C0 1.34 0 0.68 0 0 Z " fill="#404153" transform="translate(1008,294)"/>
<path d="M0 0 C2.475 0.495 2.475 0.495 5 1 C5.33 2.65 5.66 4.3 6 6 C5.34 6 4.68 6 4 6 C3.34 10.62 2.68 15.24 2 20 C1.34 20 0.68 20 0 20 C0 13.4 0 6.8 0 0 Z " fill="#515161" transform="translate(1024,294)"/>
<path d="M0 0 C0.33 0 0.66 0 1 0 C1 3.96 1 7.92 1 12 C0.01 12 -0.98 12 -2 12 C-1.85831863 10.56208484 -1.71148957 9.1246763 -1.5625 7.6875 C-1.48128906 6.88699219 -1.40007812 6.08648437 -1.31640625 5.26171875 C-1 3 -1 3 0 0 Z " fill="#5C5D6C" transform="translate(1042,302)"/>
<path d="M0 0 C1.1875 1.5 1.1875 1.5 2 4 C1.39095434 6.85144105 0.49729165 9.49304042 -1 12 C-1.99 12.33 -2.98 12.66 -4 13 C-4.33 12.34 -4.66 11.68 -5 11 C-4.34 11 -3.68 11 -3 11 C-2.87625 10.29875 -2.7525 9.5975 -2.625 8.875 C-1.96161655 5.82343613 -1.02788045 2.94659062 0 0 Z " fill="#4B4C5D" transform="translate(1037,297)"/>
</svg>
