<?xml version="1.0" encoding="UTF-8"?>
<svg version="1.1" xmlns="http://www.w3.org/2000/svg" width="140" height="57">
<path d="M0 0 C0.99 0.66 1.98 1.32 3 2 C3.33 1.34 3.66 0.68 4 0 C6.64 0 9.28 0 12 0 C12.02886338 4.47915328 12.04675187 8.95828291 12.0625 13.4375 C12.07087891 14.71689453 12.07925781 15.99628906 12.08789062 17.31445312 C12.09272461 19.13686523 12.09272461 19.13686523 12.09765625 20.99609375 C12.10551147 22.68496704 12.10551147 22.68496704 12.11352539 24.40795898 C12 27 12 27 11 28 C8.66702567 28.04092937 6.33294775 28.04241723 4 28 C4 27.01 4 26.02 4 25 C2.4840625 25.7734375 2.4840625 25.7734375 0.9375 26.5625 C-3.04624496 28.24452565 -5.78591313 28.24861833 -10 27 C-13.12706257 24.42885966 -15.77249682 21.90569195 -17 18 C-17.45334816 12.37848283 -17.18933562 8.83899198 -14 4 C-9.96765426 -0.50673936 -5.75669111 -0.92710756 0 0 Z M-7.9375 8.0625 C-9.63902633 11.1652833 -9.42519574 13.53769185 -9 17 C-7.54002013 19.62716577 -7.54002013 19.62716577 -5 21 C-1.52255535 21 0.26240749 20.61862598 2.9375 18.375 C4.46862051 14.95249533 3.8626304 12.58323398 3 9 C1.06268472 6.63589512 1.06268472 6.63589512 -2.4375 6.6875 C-5.84426951 6.74559145 -5.84426951 6.74559145 -7.9375 8.0625 Z " fill="#DC0018" transform="translate(72,29)"/>
<path d="M0 0 C2.64 0 5.28 0 8 0 C8.33 3.63 8.66 7.26 9 11 C9.99 10.34 10.98 9.68 12 9 C16.28388316 8.68844486 19.35515826 8.66066058 23 11 C27.54822471 17.95810497 26.49119196 28.06536066 26 36 C25.67 36.33 25.34 36.66 25 37 C22.69 37 20.38 37 18 37 C17.505 27.1 17.505 27.1 17 17 C14.36 17 11.72 17 9 17 C8.67 23.6 8.34 30.2 8 37 C5.36 37 2.72 37 0 37 C0 24.79 0 12.58 0 0 Z " fill="#DB0018" transform="translate(28,20)"/>
<path d="M0 0 C2.31 0 4.62 0 7 0 C7.33 6.27 7.66 12.54 8 19 C9.7325 16.525 9.7325 16.525 11.5 14 C15.28075787 9.20653912 15.28075787 9.20653912 18.3125 8.3359375 C20.5 8.375 20.5 8.375 24 9 C22.5140084 13.59306496 20.14985318 16.43569245 17 20 C19.09372792 24.6502799 22.2673356 28.48653444 25.3203125 32.5390625 C27 35 27 35 27 37 C23.99576152 37.36258051 21.91335336 37.60366781 19 37 C16.51269358 34.99802166 14.80510038 32.61486503 13 30 C12.38125 29.236875 11.7625 28.47375 11.125 27.6875 C10 26 10 26 10 24 C9.01 24 8.02 24 7 24 C7 28.29 7 32.58 7 37 C4.69 37 2.38 37 0 37 C0 24.79 0 12.58 0 0 Z " fill="#DC0018" transform="translate(0,20)"/>
<path d="M0 0 C2.64 0 5.28 0 8 0 C8 2.31 8 4.62 8 7 C9.65 7 11.3 7 13 7 C13 8.98 13 10.96 13 13 C11.35 13 9.7 13 8 13 C8.33 17.95 8.66 22.9 9 28 C10.98 28.66 12.96 29.32 15 30 C15 31.98 15 33.96 15 36 C10.47656903 37.37073666 7.37001812 36.69945149 3 35 C0.98970622 33.18380355 0.09650146 31.79000522 -0.234375 29.08129883 C-0.29548186 26.79666602 -0.2613666 24.53418248 -0.1875 22.25 C-0.17396484 21.45722656 -0.16042969 20.66445313 -0.14648438 19.84765625 C-0.11125223 17.89814436 -0.05744821 15.94898374 0 14 C-1.65 13.67 -3.3 13.34 -5 13 C-5 11.02 -5 9.04 -5 7 C-3.35 7 -1.7 7 0 7 C0 4.69 0 2.38 0 0 Z " fill="#DC0018" transform="translate(101,20)"/>
<path d="M0 0 C-0.54305845 5.88754836 -1.76845631 10.92452101 -3.875 16.4375 C-4.13152344 17.15615234 -4.38804687 17.87480469 -4.65234375 18.61523438 C-5.34120403 20.44815658 -6.1620355 22.230269 -7 24 C-7.99 24.33 -8.98 24.66 -10 25 C-10.2475 23.906875 -10.495 22.81375 -10.75 21.6875 C-12.09062053 17.73266944 -12.39566335 16.84837777 -16 15 C-18.97107291 13.89675185 -21.96577287 12.91415817 -25 12 C-24.78125 9.6328125 -24.78125 9.6328125 -24 7 C-22.03125 5.7421875 -22.03125 5.7421875 -19.5 4.875 C-18.59894531 4.55789062 -17.69789062 4.24078125 -16.76953125 3.9140625 C-15.85558594 3.61242187 -14.94164063 3.31078125 -14 3 C-13.17886719 2.69835937 -12.35773438 2.39671875 -11.51171875 2.0859375 C-7.57821 0.67119654 -4.24322182 -0.41063437 0 0 Z " fill="#DB0018" transform="translate(140,0)"/>
<path d="M0 0 C2.31 0 4.62 0 7 0 C7 12.21 7 24.42 7 37 C4.69 37 2.38 37 0 37 C0 24.79 0 12.58 0 0 Z " fill="#DB0018" transform="translate(87,20)"/>
<path d="M0 0 C2.64 0 5.28 0 8 0 C8 9.24 8 18.48 8 28 C5.69 28 3.38 28 1 28 C0 27 0 27 -0.11352539 24.40795898 C-0.10828857 23.28204346 -0.10305176 22.15612793 -0.09765625 20.99609375 C-0.09443359 19.78115234 -0.09121094 18.56621094 -0.08789062 17.31445312 C-0.07951172 16.03505859 -0.07113281 14.75566406 -0.0625 13.4375 C-0.05798828 12.15423828 -0.05347656 10.87097656 -0.04882812 9.54882812 C-0.03699545 6.36583978 -0.02051068 3.18294238 0 0 Z " fill="#DC0018" transform="translate(118,29)"/>
<path d="M0 0 C1.875 0.6875 1.875 0.6875 2.875 1.6875 C2.91563832 3.35367115 2.917721 5.02138095 2.875 6.6875 C0.5625 7.8125 0.5625 7.8125 -2.125 8.6875 C-3.115 8.0275 -4.105 7.3675 -5.125 6.6875 C-5.5 4.1875 -5.5 4.1875 -5.125 1.6875 C-2.125 -0.3125 -2.125 -0.3125 0 0 Z " fill="#DB0018" transform="translate(123.125,18.3125)"/>
</svg>
